<?xml version="1.0" encoding="UTF-8" standalone="no"?>
<!-- Created with Inkscape (http://www.inkscape.org/) -->

<svg
   xmlns:dc="http://purl.org/dc/elements/1.1/"
   xmlns:cc="http://creativecommons.org/ns#"
   xmlns:rdf="http://www.w3.org/1999/02/22-rdf-syntax-ns#"
   xmlns:svg="http://www.w3.org/2000/svg"
   xmlns="http://www.w3.org/2000/svg"
   xmlns:xlink="http://www.w3.org/1999/xlink"
   xmlns:sodipodi="http://sodipodi.sourceforge.net/DTD/sodipodi-0.dtd"
   xmlns:inkscape="http://www.inkscape.org/namespaces/inkscape"
   width="1920"
   height="1080"
   id="svg2"
   version="1.1"
   inkscape:version="0.92.4 (5da689c313, 2019-01-14)"
   sodipodi:docname="guix-encircled-checkered-16-9.svg"
   inkscape:export-filename="guix-encircled-checkered.png"
   inkscape:export-xdpi="96"
   inkscape:export-ydpi="96">
  <defs
     id="defs4">
    <linearGradient
       id="linearGradient4978"
       inkscape:collect="always">
      <stop
         id="stop4974"
         offset="0"
         style="stop-color:#5a5a5a;stop-opacity:1" />
      <stop
         id="stop4976"
         offset="1"
         style="stop-color:#000000;stop-opacity:1" />
    </linearGradient>
    <linearGradient
       inkscape:collect="always"
       id="linearGradient4920">
      <stop
         style="stop-color:#6a6a6a;stop-opacity:1"
         offset="0"
         id="stop4916" />
      <stop
         style="stop-color:#000000;stop-opacity:0.99663299"
         offset="1"
         id="stop4918" />
    </linearGradient>
    <linearGradient
       id="linearGradient5671">
      <stop
         id="stop5673"
         offset="0"
         style="stop-color:#ffcc41;stop-opacity:1;" />
      <stop
         id="stop5675"
         offset="1"
         style="stop-color:#b84c18;stop-opacity:1;" />
    </linearGradient>
    <linearGradient
       id="linearGradient8343">
      <stop
         style="stop-color:#da3333;stop-opacity:1;"
         offset="0"
         id="stop8345" />
      <stop
         id="stop8351"
         offset="0.5"
         style="stop-color:#c22e2e;stop-opacity:1;" />
      <stop
         style="stop-color:#ff4141;stop-opacity:1;"
         offset="1"
         id="stop8347" />
    </linearGradient>
    <linearGradient
       id="linearGradient7972">
      <stop
         style="stop-color:#293034;stop-opacity:1;"
         offset="0"
         id="stop7974" />
      <stop
         style="stop-color:#1a1a1a;stop-opacity:1;"
         offset="1"
         id="stop7976" />
    </linearGradient>
    <radialGradient
       inkscape:collect="always"
       xlink:href="#linearGradient7972"
       id="radialGradient7978"
       cx="349"
       cy="147.55556"
       fx="349"
       fy="147.55556"
       r="512"
       gradientTransform="matrix(1.875,0,0,1.0546875,0,-267.75)"
       gradientUnits="userSpaceOnUse" />
    <filter
       inkscape:collect="always"
       id="filter8272">
      <feGaussianBlur
         inkscape:collect="always"
         stdDeviation="3.9710167"
         id="feGaussianBlur8274" />
    </filter>
    <clipPath
       clipPathUnits="userSpaceOnUse"
       id="clipPath8306">
      <path
         inkscape:connector-curvature="0"
         id="path8308"
         d="M 1024,345.25 C 1004.1716,405.20323 944.61616,545.66849 814.375,576.90625 837.54058,576.25501 859.19801,575.61386 877,575 c 61.26929,-2.11273 109.50181,-27.0897 147,-60.9375 z"
         style="fill:#41c0ff;fill-opacity:1;stroke:none" />
    </clipPath>
    <filter
       inkscape:collect="always"
       id="filter4105">
      <feGaussianBlur
         inkscape:collect="always"
         stdDeviation="1.9340625"
         id="feGaussianBlur4107" />
    </filter>
    <clipPath
       clipPathUnits="userSpaceOnUse"
       id="clipPath4111">
      <path
         id="path4113"
         d="m 1024,514.0625 c -12.434,11.22353 -26.05911,21.45611 -40.9375,30.21875 -0.54571,0.32139 -1.07589,0.65138 -1.625,0.96875 -0.2343,0.13938 -0.4827,0.26679 -0.71875,0.40625 -19.00724,11.22957 -43.64824,22.66641 -73.75,30.34375 H 1024 Z"
         style="fill:url(#radialGradient4115);fill-opacity:1;stroke:none"
         inkscape:connector-curvature="0" />
    </clipPath>
    <radialGradient
       inkscape:collect="always"
       xlink:href="#linearGradient8343"
       id="radialGradient4115"
       gradientUnits="userSpaceOnUse"
       gradientTransform="matrix(1,0,0,0.25050556,0,408.49789)"
       cx="900.375"
       cy="545.03125"
       fx="900.375"
       fy="545.03125"
       r="123.625" />
    <linearGradient
       inkscape:collect="always"
       xlink:href="#linearGradient5671"
       id="linearGradient4214"
       x1="1022.9688"
       y1="575.03125"
       x2="959"
       y2="526.03125"
       gradientUnits="userSpaceOnUse" />
    <linearGradient
       inkscape:collect="always"
       xlink:href="#linearGradient5671"
       id="linearGradient5679"
       gradientUnits="userSpaceOnUse"
       x1="1022.9688"
       y1="575.03125"
       x2="959"
       y2="526.03125"
       gradientTransform="matrix(-1,0,0,1,1024,0)" />
    <linearGradient
       inkscape:collect="always"
       xlink:href="#linearGradient4978"
       id="linearGradient4922"
       x1="853.26038"
       y1="-95.497139"
       x2="1004.8232"
       y2="52.452656"
       gradientUnits="userSpaceOnUse"
       gradientTransform="matrix(-0.7024597,0,0,-0.7024597,1634.644,53.358498)" />
    <linearGradient
       inkscape:collect="always"
       xlink:href="#linearGradient4920"
       id="linearGradient4972"
       gradientUnits="userSpaceOnUse"
       gradientTransform="matrix(0.7024597,0,0,0.7024597,285.35718,18.641507)"
       x1="861.74567"
       y1="-77.112358"
       x2="977.95306"
       y2="96.639442" />
    <color-profile
       name="Artifex-PS-CMYK-Profile"
       xlink:href="/usr/share/color/icc/ghostscript/ps_cmyk.icc"
       id="color-profile50" />
    <pattern
       patternTransform="scale(10)"
       id="pattern1737"
       xlink:href="#Checkerboard"
       inkscape:collect="always" />
    <pattern
       inkscape:stockid="Checkerboard"
       id="Checkerboard"
       patternTransform="translate(0,0) scale(10,10)"
       height="2"
       width="2"
       patternUnits="userSpaceOnUse"
       inkscape:collect="always"
       inkscape:isstock="true">
      <rect
         id="rect5679"
         height="1"
         width="1"
         y="0"
         x="0"
         style="fill:black;stroke:none" />
      <rect
         id="rect5681"
         height="1"
         width="1"
         y="1"
         x="1"
         style="fill:black;stroke:none" />
    </pattern>
    <linearGradient
       y2="70.667412"
       x2="176.60477"
       y1="63.65625"
       x1="142.96875"
       gradientTransform="matrix(0.88803314,0,0,0.88803314,2385.7724,-71.02234)"
       gradientUnits="userSpaceOnUse"
       id="linearGradient3950"
       xlink:href="#linearGradient4702-3"
       inkscape:collect="always" />
    <linearGradient
       id="linearGradient4702-3">
      <stop
         id="stop4704-1"
         offset="0"
         style="stop-color:#e34646;stop-opacity:1;" />
      <stop
         id="stop4706-8"
         offset="1"
         style="stop-color:#ffbf2d;stop-opacity:1;" />
    </linearGradient>
    <linearGradient
       y2="922.07178"
       x2="78.000107"
       y1="1004.8033"
       x1="113.5146"
       gradientTransform="matrix(0.88803314,0,0,0.88803314,2385.7437,-827.94909)"
       gradientUnits="userSpaceOnUse"
       id="linearGradient3946"
       xlink:href="#linearGradient4702-3"
       inkscape:collect="always" />
    <linearGradient
       y2="1043.709"
       x2="80.655251"
       y1="1025.709"
       x1="108.08774"
       gradientTransform="matrix(-0.49726789,0,0,0.49726789,2525.8665,-455.25083)"
       gradientUnits="userSpaceOnUse"
       id="linearGradient3943"
       xlink:href="#linearGradient4696-5"
       inkscape:collect="always" />
    <linearGradient
       id="linearGradient4696-5">
      <stop
         id="stop4698-6"
         offset="0"
         style="stop-color:#ffb638;stop-opacity:1;" />
      <stop
         id="stop4700-2"
         offset="1"
         style="stop-color:#f0ae26;stop-opacity:1;" />
    </linearGradient>
    <linearGradient
       y2="69.791016"
       x2="177.04297"
       y1="63.65625"
       x1="142.96875"
       gradientTransform="matrix(-0.88803314,0,0,0.88803314,2566.1263,-71.02263)"
       gradientUnits="userSpaceOnUse"
       id="linearGradient3940"
       xlink:href="#linearGradient4702-3"
       inkscape:collect="always" />
  </defs>
  <sodipodi:namedview
     id="base"
     pagecolor="#ffffff"
     bordercolor="#666666"
     borderopacity="1.0"
     inkscape:pageopacity="0"
     inkscape:pageshadow="2"
     inkscape:zoom="1"
     inkscape:cx="1033.3364"
     inkscape:cy="663.95035"
     inkscape:document-units="px"
     inkscape:current-layer="layer2"
     showgrid="false"
     inkscape:showpageshadow="false"
     inkscape:window-width="1920"
     inkscape:window-height="1016"
     inkscape:window-x="0"
     inkscape:window-y="27"
     inkscape:window-maximized="1"
     inkscape:snap-global="false"
     inkscape:snap-bbox="true"
     inkscape:bbox-nodes="true"
     showborder="true"
     inkscape:snap-page="false">
    <inkscape:grid
       type="xygrid"
       id="grid3148"
       empspacing="5"
       visible="true"
       enabled="true"
       snapvisiblegridlinesonly="true"
       spacingx="20"
       spacingy="20"
       originx="3"
       originy="15" />
  </sodipodi:namedview>
  <metadata
     id="metadata7">
    <rdf:RDF>
      <cc:Work
         rdf:about="">
        <dc:format>image/svg+xml</dc:format>
        <dc:type
           rdf:resource="http://purl.org/dc/dcmitype/StillImage" />
        <dc:title></dc:title>
        <dc:date>2020-02-23</dc:date>
        <dc:creator>
          <cc:Agent>
            <dc:title>sirgazil</dc:title>
          </cc:Agent>
        </dc:creator>
        <dc:rights>
          <cc:Agent>
            <dc:title>sirgazil</dc:title>
          </cc:Agent>
        </dc:rights>
        <dc:language>en</dc:language>
        <dc:contributor>
          <cc:Agent>
            <dc:title />
          </cc:Agent>
        </dc:contributor>
        <cc:license
           rdf:resource="http://creativecommons.org/publicdomain/zero/1.0/" />
        <dc:description>This background is for 16:9 displays.

This image is dedicated to the public domain, except for the Guix logo, which can be used under the  Creative Commons Attribution-ShareAlike 4.0 International License.</dc:description>
      </cc:Work>
      <cc:License
         rdf:about="http://creativecommons.org/publicdomain/zero/1.0/">
        <cc:permits
           rdf:resource="http://creativecommons.org/ns#Reproduction" />
        <cc:permits
           rdf:resource="http://creativecommons.org/ns#Distribution" />
        <cc:permits
           rdf:resource="http://creativecommons.org/ns#DerivativeWorks" />
      </cc:License>
    </rdf:RDF>
  </metadata>
  <g
     inkscape:groupmode="layer"
     id="layer4"
     inkscape:label="Background"
     transform="translate(0,504)"
     sodipodi:insensitive="true">
    <rect
       style="fill:url(#radialGradient7978);fill-opacity:1;stroke:none;stroke-width:1.875"
       id="rect4050"
       width="1920"
       height="1080"
       x="0"
       y="-504" />
  </g>
  <g
     inkscape:groupmode="layer"
     id="layer1"
     inkscape:label="Checkered pattern"
     sodipodi:insensitive="true">
    <rect
       style="opacity:0.1;fill:url(#pattern1737);fill-opacity:1;stroke:none;stroke-width:1.875"
       id="rect4050-7"
       width="1920"
       height="1080"
       x="0"
       y="0" />
  </g>
  <g
     inkscape:groupmode="layer"
     id="layer8"
     inkscape:label="Colored arcs"
     transform="translate(0,504)"
     sodipodi:insensitive="true">
    <g
       id="g4015"
       transform="translate(896)">
      <path
         id="path4206"
         d="m 1024,514.0625 c -12.434,11.22353 -26.05911,21.45611 -40.9375,30.21875 -0.54571,0.32139 -1.07589,0.65138 -1.625,0.96875 -0.2343,0.13938 -0.4827,0.26679 -0.71875,0.40625 -19.00724,11.22957 -43.64824,22.66641 -73.75,30.34375 H 1024 Z"
         style="fill:url(#linearGradient4214);fill-opacity:1;stroke:none"
         inkscape:connector-curvature="0" />
      <path
         clip-path="url(#clipPath8306)"
         style="opacity:0.76999996;fill:#000000;fill-opacity:1;stroke:none;filter:url(#filter8272)"
         d="m 981.85328,276.33348 c 1.20852,57.95423 -6.50011,191.25195 -94.99137,269.09778 75.77742,-38.25144 111.53629,-109.43512 128.00389,-175.79725 z"
         id="path8250"
         inkscape:connector-curvature="0" />
      <path
         clip-path="url(#clipPath4111)"
         sodipodi:nodetypes="cccccc"
         inkscape:connector-curvature="0"
         id="rect3216"
         d="M 897.78125,508.8125 V 576 h 9.1875 C 955.71416,566.11673 995.2198,550.71224 1024,514.0625 v -5.25 z"
         style="opacity:0.5;fill:#000000;fill-opacity:1;stroke:none;filter:url(#filter4105)" />
    </g>
    <g
       id="g4020">
      <path
         inkscape:connector-curvature="0"
         style="fill:url(#linearGradient5679);fill-opacity:1;stroke:none"
         d="m 0,514.0625 c 12.434,11.22353 26.05911,21.45611 40.9375,30.21875 0.54571,0.32139 1.07589,0.65138 1.625,0.96875 0.2343,0.13938 0.4827,0.26679 0.71875,0.40625 19.00724,11.22957 43.64824,22.66641 73.75,30.34375 H 0 Z"
         id="path5677" />
      <path
         transform="matrix(-1,0,0,1,1024,0)"
         inkscape:connector-curvature="0"
         id="path4126"
         d="m 981.85328,276.33348 c 1.20852,57.95423 -6.50011,191.25195 -94.99137,269.09778 75.77742,-38.25144 111.53629,-109.43512 128.00389,-175.79725 z"
         style="opacity:0.76999996;fill:#000000;fill-opacity:1;stroke:none;filter:url(#filter8272)"
         clip-path="url(#clipPath8306)" />
      <path
         transform="matrix(-1,0,0,1,1024,0)"
         style="opacity:0.5;fill:#000000;fill-opacity:1;stroke:none;filter:url(#filter4105)"
         d="M 897.78125,508.8125 V 576 h 9.1875 C 955.71416,566.11673 995.2198,550.71224 1024,514.0625 v -5.25 z"
         id="path4128"
         inkscape:connector-curvature="0"
         sodipodi:nodetypes="cccccc"
         clip-path="url(#clipPath4111)" />
    </g>
  </g>
  <g
     inkscape:groupmode="layer"
     id="layer2"
     inkscape:label="Logo"
     transform="translate(0,504)">
    <path
       style="opacity:1;fill:#1a1a1a;fill-opacity:1;stroke:none;stroke-width:1.15436268;stroke-linecap:butt;stroke-miterlimit:4;stroke-dasharray:none;stroke-dashoffset:0;stroke-opacity:1"
       d="M 959.99999,-78.423383 A 114.42285,114.42285 0 0 0 845.57717,35.99944 114.42285,114.42285 0 0 0 959.99999,150.42338 114.42285,114.42285 0 0 0 1074.4228,35.99944 114.42285,114.42285 0 0 0 959.99999,-78.423383 Z m 0,13.877155 A 100.54648,100.54648 0 0 1 1060.5456,35.99944 100.54648,100.54648 0 0 1 959.99999,136.54622 100.54648,100.54648 0 0 1 859.4532,35.99944 100.54648,100.54648 0 0 1 959.99999,-64.546228 Z"
       id="path4104"
       inkscape:connector-curvature="0" />
    <path
       inkscape:connector-curvature="0"
       id="path4109"
       d="m 960.00003,150.42339 c 63.19397,-2e-5 114.42277,-51.228856 114.42277,-114.422822 7e-4,-63.194411 -51.2283,-114.423937 -114.42277,-114.423958 -63.19442,0 -114.42346,51.22953 -114.42285,114.423958 2e-5,63.193987 51.22887,114.422822 114.42285,114.422822 z"
       style="opacity:1;fill:none;fill-opacity:1;stroke:url(#linearGradient4922);stroke-width:1.15436268;stroke-linecap:butt;stroke-miterlimit:4;stroke-dasharray:none;stroke-dashoffset:0;stroke-opacity:1"
       sodipodi:nodetypes="scscs" />
    <path
       style="opacity:1;fill:none;fill-opacity:1;stroke:url(#linearGradient4972);stroke-width:1.15436268;stroke-linecap:butt;stroke-miterlimit:4;stroke-dasharray:none;stroke-dashoffset:0;stroke-opacity:1"
       d="m 960.00115,-64.546215 c 55.52965,4.22e-4 100.54525,45.016006 100.54565,100.545655 2e-4,55.530072 -45.0155,100.54636 -100.54565,100.54678 -55.53056,2.1e-4 -100.54699,-45.016286 -100.54678,-100.54678 4.2e-4,-55.530071 45.01671,-100.545866 100.54678,-100.545655 z"
       id="path4970"
       inkscape:connector-curvature="0"
       sodipodi:nodetypes="ccccc" />
    <g
       transform="translate(0,8.0000011)"
       id="g1093">
      <path
         inkscape:connector-curvature="0"
         id="path3190-3"
         transform="translate(0,-504)"
         d="m 904.89453,487.38086 -3.79883,1.41992 c 1.41254,3.48985 2.90954,6.48579 4.48828,8.97852 1.53716,2.49276 3.26667,4.55943 5.17774,6.17968 1.91105,1.57874 4.04208,2.73853 6.41016,3.48633 2.36806,0.74784 5.04582,1.10549 8.0371,1.10547 0.11447,0 0.2039,-0.007 0.31641,-0.008 0.0838,5.7e-4 0.16181,0.008 0.24609,0.008 2.06253,2e-5 3.79237,-0.0862 5.23633,-0.25976 0.35053,0.15646 0.7005,0.38672 1.04883,0.67773 -0.0613,-0.0833 -0.27473,-0.35737 -0.57031,-0.72266 7.03507,2.84885 13.61331,34.6404 20.45703,49.89063 l -0.0117,0.0176 h 0.008 l -0.004,0.006 h 16.67187 l -0.004,-0.006 h 0.008 0.0215 l -0.0117,-0.0215 c 6.47721,-14.4362 12.71778,-43.67304 19.33203,-49.17578 -10e-4,0.002 -0.009,0.0102 -0.01,0.0117 0.18999,-0.15874 0.38163,-0.30244 0.57226,-0.42578 0.1921,-0.12429 0.38339,-0.22769 0.57618,-0.30469 0.38162,0.0534 0.7852,0.0993 1.21289,0.13867 1.28353,0.11824 2.77491,0.17385 4.48633,0.17383 2.99126,2e-5 5.66908,-0.35763 8.03708,-1.10547 2.3682,-0.7478 4.4992,-1.90758 6.4102,-3.48633 1.911,-1.62025 3.6405,-3.68693 5.1777,-6.17968 1.5787,-2.4927 3.0756,-5.48867 4.4883,-8.97852 l -3.7988,-1.41992 c -1.2047,2.20195 -2.4294,3.99569 -3.6758,5.4082 -1.2049,1.37103 -2.5322,2.46795 -3.9863,3.29883 -0.345,0.19279 -0.697,0.35519 -1.0645,0.52149 -0.01,0.004 -0.013,0.0176 -0.022,0.0215 -0.01,0.005 -0.018,0.009 -0.025,0.0137 -1.1263,0.50535 -2.3575,0.88662 -3.6914,1.13477 -1.745,0.29085 -3.74816,0.43752 -6.03318,0.4375 -1.68548,2e-5 -3.19939,-0.0859 -4.5293,-0.25 -0.007,-3.4e-4 -0.0165,3.8e-4 -0.0215,0 -0.1686,-0.0122 -0.51694,-0.0686 -0.87695,-0.125 -0.37905,-0.0594 -0.76776,-0.11739 -1.37891,-0.23047 -11.20237,-2.0727 -14.916,5.70402 -15.71875,7.84961 -0.12559,0.33585 -0.18945,0.54297 -0.18945,0.54297 l -13.61133,37.95507 -13.61133,-37.95507 c 0,0 -0.0618,-0.20712 -0.1875,-0.54297 -0.80268,-2.1456 -4.51831,-9.92232 -15.7207,-7.84961 -0.61108,0.11308 -0.99777,0.17107 -1.37695,0.23047 -0.35997,0.0564 -0.70835,0.1129 -0.87696,0.125 -0.005,3.8e-4 -0.0145,-3.4e-4 -0.0215,0 -1.32997,0.16412 -2.84568,0.25002 -4.53125,0.25 -2.28497,3e-5 -4.28826,-0.14665 -6.0332,-0.4375 -0.44662,-0.0831 -0.88115,-0.18248 -1.30469,-0.29492 -1.27063,-0.33733 -2.43669,-0.80444 -3.4961,-1.39649 -1.45413,-0.83087 -2.78346,-1.9278 -3.98828,-3.29883 -1.24634,-1.41251 -2.46901,-3.20625 -3.67383,-5.4082 l -0.46484,0.17383 c -0.0332,-0.06 -0.0664,-0.1132 -0.0996,-0.17383 z"
         style="font-style:normal;font-weight:bold;font-size:144px;line-height:125%;font-family:Sans;-inkscape-font-specification:'Sans Bold';letter-spacing:0px;word-spacing:0px;fill:#000000;fill-opacity:1;stroke:none;stroke-width:0.55390388" />
      <path
         inkscape:connector-curvature="0"
         id="path3178-6"
         transform="translate(0,-504)"
         d="m 970.21289,570.40234 v 4.29688 h 5.26758 v -4.29688 z m -35.02148,0.53125 c -3.78661,2e-5 -6.76949,1.01432 -8.94727,3.04493 -2.17778,2.03066 -3.26562,4.81608 -3.26562,8.35742 0,3.50212 1.06848,6.27982 3.20703,8.33008 2.13854,2.04044 5.03818,3.06054 8.69726,3.06054 1.61861,0 3.18649,-0.17229 4.70703,-0.51562 1.52051,-0.34334 2.98776,-0.85823 4.40039,-1.54492 v -10.56446 h -8.82812 v 3.79492 h 3.45703 v 4.26758 c -0.40221,0.15696 -0.85905,0.27502 -1.36914,0.35352 -0.50032,0.0687 -1.04423,0.10352 -1.63281,0.10351 -2.16799,10e-6 -3.8404,-0.63296 -5.01758,-1.89843 -1.17718,-1.26546 -1.76563,-3.06178 -1.76563,-5.38672 0,-2.34454 0.60778,-4.14471 1.82422,-5.40039 1.22622,-1.26545 2.96834,-1.89647 5.22461,-1.89649 1.21641,2e-5 2.42813,0.17034 3.63477,0.51367 1.2164,0.34336 2.43782,0.86407 3.66406,1.56055 v -4.54687 c -1.18701,-0.53952 -2.45293,-0.94602 -3.79687,-1.22071 -1.33415,-0.27466 -2.73172,-0.41209 -4.19336,-0.41211 z m 13.36132,5.88477 v 10.06445 c 0,2.22683 0.49552,3.92443 1.48633,5.0918 1.00059,1.16737 2.45236,1.75195 4.35547,1.75195 1.06926,0 2.04484,-0.22649 2.92774,-0.67773 0.89268,-0.46107 1.73664,-1.17145 2.53125,-2.13281 v 2.38281 h 5.26757 v -16.48047 h -5.26757 v 8.13867 c -2e-5,1.50091 -0.31554,2.67199 -0.94336,3.51563 -0.62785,0.84364 -1.48919,1.26562 -2.58789,1.26562 -0.45125,0 -0.85389,-0.0929 -1.20704,-0.2793 -0.34336,-0.18638 -0.62403,-0.45158 -0.83984,-0.79492 -0.16676,-0.26486 -0.28492,-0.68683 -0.35351,-1.26562 -0.0686,-0.58858 -0.10158,-1.54481 -0.10157,-2.86914 0,-0.45125 0.004,-1.34941 0.0137,-2.69336 0.009,-1.35375 0.0156,-2.47643 0.0156,-3.36914 v -1.64844 z m 21.66016,0 v 16.48047 h 5.26758 v -16.48047 z m 8.57813,0 5.94531,8.04883 -6.24024,8.43164 h 5.57813 l 3.66211,-5.20899 3.70898,5.20899 h 5.57617 l -6.23828,-8.46094 5.94532,-8.01953 h -5.57813 l -3.41406,4.88476 -3.36914,-4.88476 z"
         style="font-style:normal;font-weight:bold;font-size:40px;line-height:125%;font-family:Sans;-inkscape-font-specification:'Sans Bold';letter-spacing:0px;word-spacing:0px;fill:#000000;fill-opacity:1;stroke:none;stroke-width:0.55390388" />
      <g
         transform="matrix(0.74879927,0,0,0.74879927,-893.9891,3.9903154)"
         id="g1055">
        <g
           id="g3875"
           transform="translate(1991.2129,-974.56561)">
          <path
             d="m 463.48633,1084.1942 c -1.87503,0.9115 -3.82164,1.5951 -5.83985,2.0508 -2.01825,0.4557 -4.10158,0.6836 -6.25,0.6836 -4.85678,0 -8.70443,-1.3542 -11.54296,-4.0625 -2.83855,-2.7214 -4.25782,-6.4063 -4.25782,-11.0547 0,-4.7005 1.44531,-8.3984 4.33594,-11.0937 2.89062,-2.6953 6.84895,-4.043 11.875,-4.043 1.94008,0 3.79555,0.1823 5.56641,0.5469 1.78383,0.3646 3.46351,0.9049 5.03906,1.6211 v 6.0351 c -1.62763,-0.9244 -3.24872,-1.6146 -4.86328,-2.0703 -1.60159,-0.4557 -3.20966,-0.6836 -4.82422,-0.6836 -2.99481,0 -5.306,0.8399 -6.93359,2.5195 -1.6146,1.6667 -2.42189,4.056 -2.42188,7.168 -1e-5,3.086 0.78124,5.4688 2.34375,7.1484 1.56249,1.6797 3.78254,2.5196 6.66016,2.5196 0.78123,0 1.50388,-0.046 2.16797,-0.1367 0.67706,-0.1042 1.28253,-0.2605 1.8164,-0.4688 v -5.6641 h -4.58984 v -5.039 h 11.71875 v 14.0234"
             style="font-style:normal;font-weight:bold;font-size:40px;line-height:125%;font-family:Sans;-inkscape-font-specification:'Sans Bold';letter-spacing:0px;word-spacing:0px;fill:#ffffff;fill-opacity:1;stroke:none"
             id="path3253"
             inkscape:connector-curvature="0" />
          <path
             d="m 469.54102,1077.8466 v -13.3594 h 7.03125 v 2.1875 c -10e-6,1.1849 -0.007,2.6758 -0.0195,4.4726 -0.013,1.7839 -0.0195,2.9753 -0.0195,3.5743 -1e-5,1.7578 0.0456,3.0273 0.13672,3.8086 0.0911,0.7682 0.24739,1.3281 0.46875,1.6796 0.28645,0.4558 0.65754,0.8073 1.11328,1.0547 0.46874,0.2474 1.00259,0.3711 1.60157,0.3711 1.45831,0 2.60415,-0.5599 3.4375,-1.6797 0.83331,-1.1198 1.24998,-2.6757 1.25,-4.6679 v -10.8008 h 6.99218 v 21.875 h -6.99218 v -3.1641 c -1.05471,1.2761 -2.1745,2.2201 -3.35938,2.8321 -1.17189,0.5989 -2.46746,0.8984 -3.88672,0.8984 -2.52605,0 -4.45313,-0.7748 -5.78125,-2.3242 -1.31511,-1.5495 -1.97266,-3.8021 -1.97265,-6.7578"
             style="font-style:normal;font-weight:bold;font-size:40px;line-height:125%;font-family:Sans;-inkscape-font-specification:'Sans Bold';letter-spacing:0px;word-spacing:0px;fill:#ffffff;fill-opacity:1;stroke:none"
             id="path3255"
             inkscape:connector-curvature="0" />
          <path
             d="m 498.29102,1064.4872 h 6.99218 v 21.875 h -6.99218 v -21.875 m 0,-8.5156 h 6.99218 v 5.7031 h -6.99218 v -5.7031"
             style="font-style:normal;font-weight:bold;font-size:40px;line-height:125%;font-family:Sans;-inkscape-font-specification:'Sans Bold';letter-spacing:0px;word-spacing:0px;fill:#ffffff;fill-opacity:1;stroke:none"
             id="path3257"
             inkscape:connector-curvature="0" />
          <path
             d="m 517.56836,1075.1708 -7.89063,-10.6836 h 7.40235 l 4.47265,6.4844 4.53125,-6.4844 h 7.40235 l -7.89063,10.6445 8.28125,11.2305 h -7.40234 l -4.92188,-6.9141 -4.86328,6.9141 h -7.40234 l 8.28125,-11.1914"
             style="font-style:normal;font-weight:bold;font-size:40px;line-height:125%;font-family:Sans;-inkscape-font-specification:'Sans Bold';letter-spacing:0px;word-spacing:0px;fill:#ffffff;fill-opacity:1;stroke:none"
             id="path3259"
             inkscape:connector-curvature="0" />
        </g>
        <path
           inkscape:connector-curvature="0"
           style="font-style:normal;font-weight:bold;font-size:144px;line-height:125%;font-family:Sans;-inkscape-font-specification:'Sans Bold';letter-spacing:0px;word-spacing:0px;fill:#ffbf2d;fill-opacity:1;stroke:none"
           d="m 2548.8376,-28.84089 c -1.6016,2.92698 -3.2275,5.30992 -4.8842,7.18753 -1.6015,1.82245 -3.3676,3.28019 -5.3004,4.38465 -1.8777,1.04931 -4.0081,1.80608 -6.3828,2.24783 -2.3194,0.38657 -4.9827,0.58286 -8.02,0.58275 -2.2406,0 -4.2542,-0.11475 -6.022,-0.33297 -0.01,0 -0.021,0 -0.028,0 -0.2241,-0.0163 -0.687,-0.0915 -1.1656,-0.16652 -0.504,-0.0789 -1.0192,-0.15496 -1.8315,-0.30526 -14.891,-2.75519 -19.8296,7.58236 -20.8966,10.43442 -0.167,0.44637 -0.2497,0.72146 -0.2497,0.72146 l -18.0937,50.45139 -11.1004,18.8708 h 22.1731 c 9.1067,-20.2764 17.8619,-62.61298 27.2237,-66.35275 2.0292,0.28381 4.5444,0.41621 7.5761,0.41621 3.9762,0 7.5363,-0.47668 10.6841,-1.47076 3.1478,-0.99405 5.9792,-2.53589 8.5196,-4.63446 2.5403,-2.15375 4.8389,-4.90076 6.8823,-8.21431 2.0985,-3.31346 4.0887,-7.29401 5.9664,-11.93293 l -5.0506,-1.88708 z"
           id="path3324" />
        <path
           style="font-style:normal;font-weight:bold;font-size:144px;line-height:125%;font-family:Sans;-inkscape-font-specification:'Sans Bold';letter-spacing:0px;word-spacing:0px;fill:url(#linearGradient3950);fill-opacity:1;stroke:none"
           d="m 2548.837,-28.83882 c -1.6015,2.92697 -3.2273,5.30663 -4.8841,7.18424 -1.6015,1.82246 -3.3682,3.28089 -5.3011,4.38535 -0.465,0.25986 -0.9444,0.49865 -1.4403,0.72229 -0.01,0.002 -0.01,0.006 -0.013,0.009 -0.6242,0.43896 -1.427,0.81579 -2.5151,1.07484 -12.5499,2.98812 -21.0981,14.17223 -21.901,15.25415 0.3641,-0.29931 0.7305,-0.54368 1.0964,-0.73089 0.055,-0.0291 0.1083,-0.0555 0.1633,-0.0817 0.01,-0.004 0.017,-0.009 0.026,-0.0129 0.064,-0.0298 0.1297,-0.0562 0.1935,-0.0817 2.0292,0.28381 4.5438,0.41704 7.5755,0.41704 3.9762,0 7.5361,-0.4806 10.6839,-1.47469 3.1478,-0.99405 5.9767,-2.53184 8.5171,-4.63041 2.5403,-2.15374 4.8399,-4.90254 6.8833,-8.21609 2.0985,-3.31346 4.0898,-7.2961 5.9675,-11.93504 l -5.0518,-1.88312 z"
           id="path3326"
           inkscape:connector-curvature="0" />
        <path
           inkscape:connector-curvature="0"
           style="font-style:normal;font-weight:bold;font-size:144px;line-height:125%;font-family:Sans;-inkscape-font-specification:'Sans Bold';letter-spacing:0px;word-spacing:0px;fill:#ffbf2d;fill-opacity:1;stroke:none"
           d="m 2403.0612,-28.84088 c 1.6016,2.92697 3.2275,5.30991 4.8842,7.18752 1.6015,1.82245 3.3676,3.28019 5.3005,4.38465 1.8776,1.04931 4.008,1.80608 6.3827,2.24783 2.3195,0.38669 4.9827,0.58286 8.02,0.58275 2.2406,0 4.2542,-0.11475 6.022,-0.33297 0.01,0 0.021,0 0.028,0 0.2241,-0.0161 0.687,-0.0915 1.1656,-0.16652 0.504,-0.0789 1.0192,-0.15496 1.8315,-0.30526 14.891,-2.75519 19.8296,7.58236 20.8966,10.43442 0.167,0.44637 0.2497,0.72146 0.2497,0.72146 l 18.0937,50.45139 11.1004,18.8708 h -22.1731 c -9.1067,-20.2764 -17.8618,-62.61298 -27.2237,-66.35275 -2.0292,0.28381 -4.5444,0.41621 -7.5761,0.41621 -3.9762,0 -7.5363,-0.47668 -10.6841,-1.47076 -3.1478,-0.99405 -5.9792,-2.53589 -8.5196,-4.63446 -2.5403,-2.15375 -4.8389,-4.90076 -6.8822,-8.21431 -2.0986,-3.31343 -4.0888,-7.29398 -5.9665,-11.93293 l 5.0507,-1.88707 z"
           id="path3328" />
        <path
           sodipodi:nodetypes="ccccccccsscccccccccccc"
           id="path3330"
           d="m 2403.0603,-28.84161 c 1.6016,2.92697 3.2275,5.3099 4.8842,7.18751 1.6015,1.82246 3.3676,3.2802 5.3005,4.38466 1.8776,1.04931 4.008,1.80608 6.3827,2.24783 2.3195,0.38668 4.9827,0.58286 8.0201,0.58275 2.2405,0 4.2541,-0.11476 6.0219,-0.33298 0.01,0 0.021,0 0.028,0 0.2241,-0.0161 0.6871,-0.0915 1.1656,-0.16652 0.504,-0.0789 1.0192,-0.15495 1.8315,-0.30525 14.891,-2.75519 19.8296,7.58235 20.8966,10.43441 0.167,0.44638 0.2497,0.72147 0.2497,0.72147 l 18.0937,50.45142 9.3244,18.8708 h -20.3971 c -9.1066,-20.2765 -17.8618,-62.61302 -27.2237,-66.35278 -2.0292,0.28381 -4.5444,0.4162 -7.5761,0.4162 -3.9762,0 -7.5363,-0.47668 -10.6841,-1.47076 -3.1478,-0.99405 -5.9792,-2.53589 -8.5196,-4.63446 -2.5403,-2.15374 -4.8389,-4.90075 -6.8822,-8.2143 -2.0986,-3.31344 -4.0888,-7.29399 -5.9665,-11.93294 l 5.0507,-1.88706 z"
           style="font-style:normal;font-weight:bold;font-size:144px;line-height:125%;font-family:Sans;-inkscape-font-specification:'Sans Bold';letter-spacing:0px;word-spacing:0px;fill:url(#linearGradient3946);fill-opacity:1;stroke:none"
           inkscape:connector-curvature="0" />
        <path
           inkscape:connector-curvature="0"
           id="path3332"
           style="font-style:normal;font-weight:bold;font-size:144px;line-height:125%;font-family:Sans;-inkscape-font-specification:'Sans Bold';letter-spacing:0px;word-spacing:0px;fill:url(#linearGradient3943);fill-opacity:1;stroke:none"
           d="m 2475.9308,46.35649 -11.0569,18.8787 h 22.162"
           sodipodi:nodetypes="ccc" />
        <path
           style="font-style:normal;font-weight:bold;font-size:144px;line-height:125%;font-family:Sans;-inkscape-font-specification:'Sans Bold';letter-spacing:0px;word-spacing:0px;fill:url(#linearGradient3940);fill-opacity:1;stroke:none"
           d="m 2403.0627,-28.83882 -5.0517,1.88312 c 0.5867,1.44967 1.1842,2.83667 1.7928,4.15749 0.1217,0.26416 0.2429,0.52349 0.3655,0.78248 4e-4,9.5e-4 -5e-4,0.003 0,0.004 0.122,0.25779 0.2468,0.51261 0.3697,0.76528 0.041,0.0842 0.084,0.16572 0.1247,0.24936 0.2061,0.42 0.4106,0.83689 0.6191,1.24252 9e-4,0.002 0,0.002 0,0.004 0.1243,0.2417 0.2489,0.4814 0.374,0.71799 0.5048,0.95435 1.0165,1.86766 1.5349,2.7387 0.1295,0.2175 0.2566,0.4283 0.387,0.6406 0.051,0.0823 0.1,0.16356 0.1504,0.24506 0.081,0.12983 0.1641,0.25911 0.2451,0.38695 0.1277,0.20709 0.2529,0.41215 0.3826,0.61481 0.2067,0.32289 0.4204,0.63855 0.6321,0.95016 0.053,0.0787 0.1052,0.15851 0.159,0.23646 0.1344,0.19476 0.2679,0.38588 0.4042,0.57612 0.2712,0.37857 0.5463,0.74862 0.8254,1.10923 0.1396,0.18031 0.2799,0.35733 0.4214,0.53312 0.283,0.3516 0.5691,0.69408 0.8599,1.02755 0.2204,0.25283 0.4458,0.50143 0.6707,0.7438 0.071,0.0765 0.1434,0.15236 0.2149,0.22786 0.2992,0.31605 0.6003,0.62244 0.9072,0.92006 0.1531,0.14846 0.305,0.29469 0.46,0.43854 0.1558,0.14458 0.311,0.28572 0.4687,0.42564 0.1568,0.13924 0.3141,0.27383 0.4729,0.40844 0.4763,0.39348 0.9648,0.76774 1.4618,1.12213 1.3252,0.94504 2.7242,1.75192 4.2005,2.42054 0.1845,0.0836 0.3676,0.16579 0.5546,0.24507 0.375,0.15912 0.7544,0.30958 1.1393,0.45143 0.1918,0.0707 0.3818,0.13566 0.5761,0.20207 0.1943,0.0664 0.3923,0.13135 0.589,0.19347 0.1968,0.0621 0.3934,0.12248 0.5933,0.18058 0.4,0.11619 0.8082,0.22656 1.2211,0.32675 0.2064,0.0501 0.4137,0.0958 0.6234,0.14188 0.2096,0.0461 0.4191,0.0911 0.632,0.13328 0.2142,0.0425 0.4274,0.0819 0.6449,0.12038 0.4322,0.0765 0.8705,0.14551 1.3156,0.20637 0.6677,0.0913 1.3496,0.16695 2.0465,0.22357 0.4646,0.0377 0.9369,0.0678 1.4145,0.0903 0.4775,0.0225 0.9626,0.0355 1.4532,0.043 0.2452,0.004 0.4909,0.004 0.7395,0.004 0.3789,0 0.7506,-1.3e-4 1.1135,-0.004 0.7257,-0.008 1.4187,-0.0261 2.0809,-0.0516 0.3296,-0.0127 0.6533,-0.0259 0.9673,-0.043 0.3154,-0.0171 0.6247,-0.0386 0.9244,-0.0602 0.8992,-0.0649 1.7284,-0.14724 2.4893,-0.25366 0.064,0.0255 0.1297,0.0519 0.1935,0.0817 0.01,0.004 0.017,0.009 0.026,0.0129 0.055,0.0262 0.1084,0.0525 0.1634,0.0817 0.366,0.18732 0.732,0.43134 1.0963,0.73089 -0.8012,-1.07972 -9.3496,-12.2658 -21.901,-15.25415 -1.0881,-0.25909 -1.8909,-0.63586 -2.5151,-1.07484 -0.01,-0.002 -0.01,-0.006 -0.013,-0.009 -0.4947,-0.22313 -0.9762,-0.4631 -1.4403,-0.72229 -9e-4,-4.8e-4 0,4.7e-4 0,0 -0.1197,-0.0684 -0.2384,-0.13954 -0.3568,-0.21067 0,-4.8e-4 0,4.7e-4 0,0 -0.1195,-0.0718 -0.2344,-0.14471 -0.3526,-0.21927 -0.2373,-0.14973 -0.4729,-0.3034 -0.7051,-0.46433 -0.1156,-0.0801 -0.2296,-0.16217 -0.3439,-0.24506 -0.2302,-0.16697 -0.4544,-0.33764 -0.6793,-0.51593 -0.1117,-0.0885 -0.2206,-0.17527 -0.3311,-0.26656 -0.1112,-0.092 -0.2211,-0.18465 -0.331,-0.27946 -0.1091,-0.0941 -0.2146,-0.19115 -0.3225,-0.28806 -0.5391,-0.48454 -1.0623,-1.00108 -1.5692,-1.55637 -0.1014,-0.11105 -0.2052,-0.22574 -0.3053,-0.33965 -0.3684,-0.4175 -0.7352,-0.8606 -1.1006,-1.3285 -0.046,-0.0582 -0.088,-0.11724 -0.1333,-0.17627 -0.1026,-0.1333 -0.2072,-0.26682 -0.3096,-0.40414 -0.5119,-0.68664 -1.0197,-1.42531 -1.5262,-2.21419 -0.2026,-0.31554 -0.4045,-0.63948 -0.6062,-0.97165 -0.1009,-0.16609 -0.2003,-0.33276 -0.301,-0.50302 -0.3011,-0.5092 -0.6035,-1.03952 -0.9029,-1.58647 z"
           id="path3334"
           inkscape:connector-curvature="0" />
      </g>
    </g>
  </g>
</svg>
